<svg width="20" height="22" viewBox="0 0 20 22" fill="none" xmlns="http://www.w3.org/2000/svg">
<path d="M9.53845 0.828125C9.95441 0.574133 10.478 0.574134 10.8939 0.828125L13.9486 2.69336C14.0374 2.74749 14.1479 2.75208 14.2406 2.70508L17.3041 1.14648C18.1689 0.706489 19.1937 1.33432 19.1937 2.30469V19.6953C19.1937 20.6657 18.1689 21.2935 17.3041 20.8535L14.2406 19.2949C14.1479 19.2479 14.0374 19.2525 13.9486 19.3066L10.8939 21.1719C10.478 21.4259 9.95441 21.4259 9.53845 21.1719L6.48376 19.3066C6.39487 19.2524 6.28362 19.2477 6.1908 19.2949L3.1283 20.8535C2.26342 21.2936 1.23866 20.6657 1.23865 19.6953V2.30469C1.23866 1.33428 2.26342 0.70639 3.1283 1.14648L6.1908 2.70508C6.28362 2.75231 6.39487 2.74764 6.48376 2.69336L9.53845 0.828125Z" stroke="#536758"/>
<path d="M6.36267 8.05884H14.0693" stroke="#536758"/>
<path d="M6.36267 11H14.0693" stroke="#536758"/>
<path d="M6.36267 13.9412H14.0693" stroke="#536758"/>
</svg>
