<svg width="23" height="22" viewBox="0 0 23 22" fill="none" xmlns="http://www.w3.org/2000/svg">
<path d="M11.9043 0.5C12.8128 0.500064 13.6273 0.790123 14.5332 1.31348C15.4265 1.82952 16.4499 2.59801 17.7676 3.58594L19.1924 4.65332C19.9202 5.19901 20.49 5.62595 20.9248 6.01074C21.3654 6.40066 21.6945 6.77131 21.9287 7.2168C22.3902 8.09471 22.377 9.08895 22.377 10.7305V16.0156C22.377 17.1743 22.3791 18.1008 22.2676 18.8262C22.1527 19.5736 21.9086 20.1772 21.3721 20.6465C20.8451 21.1074 20.1836 21.3088 19.3633 21.4053C18.5514 21.5007 17.5093 21.5 16.1787 21.5H7.62988C6.29901 21.5 5.25634 21.5008 4.44434 21.4053C3.62435 21.3088 2.96334 21.1071 2.43652 20.6465C1.90001 20.1772 1.65592 19.5735 1.54102 18.8262C1.42952 18.1008 1.43066 17.1743 1.43066 16.0156V10.7305C1.43066 9.08904 1.41746 8.09467 1.87891 7.2168C2.11314 6.77135 2.44231 6.40063 2.88281 6.01074C3.31762 5.62591 3.88826 5.19908 4.61621 4.65332L6.04102 3.58594C7.3586 2.59812 8.38121 1.82951 9.27441 1.31348C10.1805 0.790065 10.9957 0.5 11.9043 0.5Z" stroke="#536758"/>
<path d="M15.4659 20.9999V14.5227C15.4659 13.9704 15.0182 13.5227 14.4659 13.5227H9.3421C8.78982 13.5227 8.3421 13.9704 8.3421 14.5227V20.9999" stroke="#536758"/>
</svg>
