<svg width="28" height="28" viewBox="0 0 28 28" fill="none" xmlns="http://www.w3.org/2000/svg">
<path fill-rule="evenodd" clip-rule="evenodd" d="M23.8922 8.84135L17.6085 3.6459C15.4919 1.89587 12.5081 1.89586 10.3915 3.6459L4.10779 8.84135C2.97568 9.77739 2.33333 11.1966 2.33333 12.6774V20.7794C2.33333 23.4104 4.3565 25.6667 6.99999 25.6667H9.33333C10.622 25.6667 11.6667 24.622 11.6667 23.3334V19.5392C11.6667 18.0604 12.7775 16.9852 14 16.9852C15.2225 16.9852 16.3333 18.0604 16.3333 19.5392V23.3334C16.3333 24.622 17.378 25.6667 18.6667 25.6667H21C23.6435 25.6667 25.6667 23.4104 25.6667 20.7794V12.6774C25.6667 11.1966 25.0243 9.77739 23.8922 8.84135Z" fill="#3CB53F"/>
</svg>
